<?xml version="1.0" encoding="utf-8"?>
<!-- Uploaded to: SVG Repo, www.svgrepo.com, Generator: SVG Repo Mixer Tools -->
<svg fill="#000000" width="800px" height="800px" viewBox="0 0 24 24" data-name="Flat Color" xmlns="http://www.w3.org/2000/svg" class="icon flat-color">
	<path id="secondary" d="M10,15v2a1,1,0,0,1-1,1H7a1,1,0,0,1-1-1V15a1,1,0,0,1,1-1H9A1,1,0,0,1,10,15Zm7-9H15a1,1,0,0,0-1,1V9a1,1,0,0,0,1,1h2a1,1,0,0,0,1-1V7A1,1,0,0,0,17,6Zm0,6H13a1,1,0,0,0-1,1v4a1,1,0,0,0,1,1h4a1,1,0,0,0,1-1V13A1,1,0,0,0,17,12ZM12,7a1,1,0,0,0-1-1H7A1,1,0,0,0,6,7v4a1,1,0,0,0,1,1h4a1,1,0,0,0,1-1Z" style="fill: rgb(44, 169, 188);">
		<animate attributeName="opacity" dur="3s" values="0;1;1;0" repeatCount="indefinite" />
	</path>
	<path id="primary" d="M3,9A1,1,0,0,1,2,8V4A2,2,0,0,1,4,2H8A1,1,0,0,1,8,4H4V8A1,1,0,0,1,3,9ZM22,8V4a2,2,0,0,0-2-2H16a1,1,0,0,0,0,2h4V8a1,1,0,0,0,2,0ZM9,21a1,1,0,0,0-1-1H4V16a1,1,0,0,0-2,0v4a2,2,0,0,0,2,2H8A1,1,0,0,0,9,21Zm13-1V16a1,1,0,0,0-2,0v4H16a1,1,0,0,0,0,2h4A2,2,0,0,0,22,20Z" style="fill: rgb(0, 0, 0);"></path>
</svg>